<svg xmlns="http://www.w3.org/2000/svg" viewBox="0 0 83.028 66.541"><path fill="#1FE071" d="M41.514 24.196c7.337 0 13.286 5.947 13.286 13.285s-5.948 13.285-13.286 13.285c-7.338 0-13.285-5.947-13.285-13.285s5.947-13.285 13.285-13.285zm41.514-7.472v41.514c0 4.564-3.738 8.303-8.303 8.303H8.303C3.738 66.541 0 62.802 0 58.238V16.724c0-4.566 3.738-8.303 8.303-8.303h13.16L29.06.118h24.908l7.598 8.303h13.16c4.564 0 8.302 3.738 8.302 8.303zM62.271 37.482c0-11.457-9.299-20.757-20.756-20.757s-20.757 9.3-20.757 20.757c0 11.456 9.3 20.757 20.757 20.757 11.457-.001 20.756-9.301 20.756-20.757z"/></svg>