<?xml version="1.0" encoding="utf-8"?>
<!-- Generator: Adobe Illustrator 25.2.3, SVG Export Plug-In . SVG Version: 6.00 Build 0)  -->
<svg version="1.1" xmlns="http://www.w3.org/2000/svg" xmlns:xlink="http://www.w3.org/1999/xlink" x="0px" y="0px"
	 viewBox="0 0 83.028 66.541" enable-background="new 0 0 83.028 66.541" xml:space="preserve">
<g id="Grid" display="none">
	<g display="inline">
		<defs>
			<rect id="SVGID_1_" width="100" height="100"/>
		</defs>
		<clipPath id="SVGID_2_">
			<use xlink:href="#SVGID_1_"  overflow="visible"/>
		</clipPath>
		<g clip-path="url(#SVGID_2_)">
			<defs>
				<rect id="SVGID_3_" width="100" height="100"/>
			</defs>
			<clipPath id="SVGID_4_">
				<use xlink:href="#SVGID_3_"  overflow="visible"/>
			</clipPath>
		</g>
		<g clip-path="url(#SVGID_2_)">
			<defs>
				<rect id="SVGID_5_" width="100" height="100"/>
			</defs>
			<clipPath id="SVGID_6_">
				<use xlink:href="#SVGID_5_"  overflow="visible"/>
			</clipPath>
			<g clip-path="url(#SVGID_6_)">
				<defs>
					<rect id="SVGID_7_" width="100" height="100"/>
				</defs>
				<clipPath id="SVGID_8_">
					<use xlink:href="#SVGID_7_"  overflow="visible"/>
				</clipPath>
			</g>
		</g>
		<g clip-path="url(#SVGID_2_)">
			<defs>
				<rect id="SVGID_9_" width="100" height="100"/>
			</defs>
			<clipPath id="SVGID_10_">
				<use xlink:href="#SVGID_9_"  overflow="visible"/>
			</clipPath>
			<g opacity="0.15" clip-path="url(#SVGID_10_)">
				<g>
					<defs>
						<rect id="SVGID_11_" width="100" height="100"/>
					</defs>
					<clipPath id="SVGID_12_">
						<use xlink:href="#SVGID_11_"  overflow="visible"/>
					</clipPath>
					<g clip-path="url(#SVGID_12_)">
						<defs>
							<rect id="SVGID_13_" width="100" height="100"/>
						</defs>
						<clipPath id="SVGID_14_">
							<use xlink:href="#SVGID_13_"  overflow="visible"/>
						</clipPath>
						<g clip-path="url(#SVGID_14_)">
							<defs>
								<rect id="SVGID_15_" width="100" height="100"/>
							</defs>
							<clipPath id="SVGID_16_">
								<use xlink:href="#SVGID_15_"  overflow="visible"/>
							</clipPath>
							
								<line clip-path="url(#SVGID_16_)" fill="none" stroke="#000000" stroke-width="0.25" stroke-miterlimit="10" x1="4.167" y1="100" x2="4.167" y2="0"/>
							
								<line clip-path="url(#SVGID_16_)" fill="none" stroke="#000000" stroke-width="0.25" stroke-miterlimit="10" x1="8.333" y1="100" x2="8.333" y2="0"/>
							
								<line clip-path="url(#SVGID_16_)" fill="none" stroke="#000000" stroke-width="0.25" stroke-miterlimit="10" x1="12.5" y1="100" x2="12.5" y2="0"/>
							
								<line clip-path="url(#SVGID_16_)" fill="none" stroke="#000000" stroke-width="0.25" stroke-miterlimit="10" x1="16.667" y1="100" x2="16.667" y2="0"/>
							
								<line clip-path="url(#SVGID_16_)" fill="none" stroke="#000000" stroke-width="0.25" stroke-miterlimit="10" x1="20.833" y1="100" x2="20.833" y2="0"/>
							
								<line clip-path="url(#SVGID_16_)" fill="none" stroke="#000000" stroke-width="0.25" stroke-miterlimit="10" x1="25" y1="100" x2="25" y2="0"/>
							
								<line clip-path="url(#SVGID_16_)" fill="none" stroke="#000000" stroke-width="0.25" stroke-miterlimit="10" x1="29.167" y1="100" x2="29.167" y2="0"/>
							
								<line clip-path="url(#SVGID_16_)" fill="none" stroke="#000000" stroke-width="0.25" stroke-miterlimit="10" x1="33.333" y1="100" x2="33.333" y2="0"/>
							
								<line clip-path="url(#SVGID_16_)" fill="none" stroke="#000000" stroke-width="0.25" stroke-miterlimit="10" x1="37.5" y1="100" x2="37.5" y2="0"/>
							
								<line clip-path="url(#SVGID_16_)" fill="none" stroke="#000000" stroke-width="0.25" stroke-miterlimit="10" x1="41.667" y1="100" x2="41.667" y2="0"/>
							
								<line clip-path="url(#SVGID_16_)" fill="none" stroke="#000000" stroke-width="0.25" stroke-miterlimit="10" x1="45.833" y1="100" x2="45.833" y2="0"/>
							
								<line clip-path="url(#SVGID_16_)" fill="none" stroke="#000000" stroke-width="0.25" stroke-miterlimit="10" x1="50" y1="100" x2="50" y2="0"/>
							
								<line clip-path="url(#SVGID_16_)" fill="none" stroke="#000000" stroke-width="0.25" stroke-miterlimit="10" x1="54.167" y1="100" x2="54.167" y2="0"/>
							
								<line clip-path="url(#SVGID_16_)" fill="none" stroke="#000000" stroke-width="0.25" stroke-miterlimit="10" x1="58.333" y1="100" x2="58.333" y2="0"/>
							
								<line clip-path="url(#SVGID_16_)" fill="none" stroke="#000000" stroke-width="0.25" stroke-miterlimit="10" x1="62.5" y1="100" x2="62.5" y2="0"/>
							
								<line clip-path="url(#SVGID_16_)" fill="none" stroke="#000000" stroke-width="0.25" stroke-miterlimit="10" x1="66.667" y1="100" x2="66.667" y2="0"/>
							
								<line clip-path="url(#SVGID_16_)" fill="none" stroke="#000000" stroke-width="0.25" stroke-miterlimit="10" x1="70.833" y1="100" x2="70.833" y2="0"/>
							
								<line clip-path="url(#SVGID_16_)" fill="none" stroke="#000000" stroke-width="0.25" stroke-miterlimit="10" x1="75" y1="100" x2="75" y2="0"/>
							
								<line clip-path="url(#SVGID_16_)" fill="none" stroke="#000000" stroke-width="0.25" stroke-miterlimit="10" x1="79.167" y1="100" x2="79.167" y2="0"/>
							
								<line clip-path="url(#SVGID_16_)" fill="none" stroke="#000000" stroke-width="0.25" stroke-miterlimit="10" x1="83.333" y1="100" x2="83.333" y2="0"/>
							
								<line clip-path="url(#SVGID_16_)" fill="none" stroke="#000000" stroke-width="0.25" stroke-miterlimit="10" x1="87.5" y1="100" x2="87.5" y2="0"/>
							
								<line clip-path="url(#SVGID_16_)" fill="none" stroke="#000000" stroke-width="0.25" stroke-miterlimit="10" x1="91.667" y1="100" x2="91.667" y2="0"/>
							
								<line clip-path="url(#SVGID_16_)" fill="none" stroke="#000000" stroke-width="0.25" stroke-miterlimit="10" x1="95.833" y1="100" x2="95.833" y2="0"/>
							
								<line clip-path="url(#SVGID_16_)" fill="none" stroke="#000000" stroke-width="0.25" stroke-miterlimit="10" x1="0" y1="4.167" x2="100" y2="4.167"/>
							
								<line clip-path="url(#SVGID_16_)" fill="none" stroke="#000000" stroke-width="0.25" stroke-miterlimit="10" x1="0" y1="8.333" x2="100" y2="8.333"/>
							
								<line clip-path="url(#SVGID_16_)" fill="none" stroke="#000000" stroke-width="0.25" stroke-miterlimit="10" x1="0" y1="12.5" x2="100" y2="12.5"/>
							
								<line clip-path="url(#SVGID_16_)" fill="none" stroke="#000000" stroke-width="0.25" stroke-miterlimit="10" x1="0" y1="16.667" x2="100" y2="16.667"/>
							
								<line clip-path="url(#SVGID_16_)" fill="none" stroke="#000000" stroke-width="0.25" stroke-miterlimit="10" x1="0" y1="20.833" x2="100" y2="20.833"/>
							
								<line clip-path="url(#SVGID_16_)" fill="none" stroke="#000000" stroke-width="0.25" stroke-miterlimit="10" x1="0" y1="25" x2="100" y2="25"/>
							
								<line clip-path="url(#SVGID_16_)" fill="none" stroke="#000000" stroke-width="0.25" stroke-miterlimit="10" x1="0" y1="29.167" x2="100" y2="29.167"/>
							
								<line clip-path="url(#SVGID_16_)" fill="none" stroke="#000000" stroke-width="0.25" stroke-miterlimit="10" x1="0" y1="33.333" x2="100" y2="33.333"/>
							
								<line clip-path="url(#SVGID_16_)" fill="none" stroke="#000000" stroke-width="0.25" stroke-miterlimit="10" x1="0" y1="37.5" x2="100" y2="37.5"/>
							
								<line clip-path="url(#SVGID_16_)" fill="none" stroke="#000000" stroke-width="0.25" stroke-miterlimit="10" x1="0" y1="41.667" x2="100" y2="41.667"/>
							
								<line clip-path="url(#SVGID_16_)" fill="none" stroke="#000000" stroke-width="0.25" stroke-miterlimit="10" x1="0" y1="45.833" x2="100" y2="45.833"/>
							
								<line clip-path="url(#SVGID_16_)" fill="none" stroke="#000000" stroke-width="0.25" stroke-miterlimit="10" x1="0" y1="50" x2="100" y2="50"/>
							
								<line clip-path="url(#SVGID_16_)" fill="none" stroke="#000000" stroke-width="0.25" stroke-miterlimit="10" x1="0" y1="54.167" x2="100" y2="54.167"/>
							
								<line clip-path="url(#SVGID_16_)" fill="none" stroke="#000000" stroke-width="0.25" stroke-miterlimit="10" x1="0" y1="58.333" x2="100" y2="58.333"/>
							
								<line clip-path="url(#SVGID_16_)" fill="none" stroke="#000000" stroke-width="0.25" stroke-miterlimit="10" x1="0" y1="62.5" x2="100" y2="62.5"/>
							
								<line clip-path="url(#SVGID_16_)" fill="none" stroke="#000000" stroke-width="0.25" stroke-miterlimit="10" x1="0" y1="66.667" x2="100" y2="66.667"/>
							
								<line clip-path="url(#SVGID_16_)" fill="none" stroke="#000000" stroke-width="0.25" stroke-miterlimit="10" x1="0" y1="70.833" x2="100" y2="70.833"/>
							
								<line clip-path="url(#SVGID_16_)" fill="none" stroke="#000000" stroke-width="0.25" stroke-miterlimit="10" x1="0" y1="75" x2="100" y2="75"/>
							
								<line clip-path="url(#SVGID_16_)" fill="none" stroke="#000000" stroke-width="0.25" stroke-miterlimit="10" x1="0" y1="79.167" x2="100" y2="79.167"/>
							
								<line clip-path="url(#SVGID_16_)" fill="none" stroke="#000000" stroke-width="0.25" stroke-miterlimit="10" x1="0" y1="83.333" x2="100" y2="83.333"/>
							
								<line clip-path="url(#SVGID_16_)" fill="none" stroke="#000000" stroke-width="0.25" stroke-miterlimit="10" x1="0" y1="87.5" x2="100" y2="87.5"/>
							
								<line clip-path="url(#SVGID_16_)" fill="none" stroke="#000000" stroke-width="0.25" stroke-miterlimit="10" x1="0" y1="91.667" x2="100" y2="91.667"/>
							
								<line clip-path="url(#SVGID_16_)" fill="none" stroke="#000000" stroke-width="0.25" stroke-miterlimit="10" x1="0" y1="95.833" x2="100" y2="95.833"/>
						</g>
						<path clip-path="url(#SVGID_14_)" d="M0.521,99.478h98.957V0.521H0.521V99.478z M0,0h100v100H0V0z"/>
					</g>
				</g>
			</g>
		</g>
		<g display="none" clip-path="url(#SVGID_2_)">
			<defs>
				<rect id="SVGID_17_" width="100" height="100"/>
			</defs>
			<clipPath id="SVGID_18_" display="inline">
				<use xlink:href="#SVGID_17_"  overflow="visible"/>
			</clipPath>
			<g display="inline" clip-path="url(#SVGID_18_)">
				<defs>
					<rect id="SVGID_19_" width="100" height="100"/>
				</defs>
				<clipPath id="SVGID_20_">
					<use xlink:href="#SVGID_19_"  overflow="visible"/>
				</clipPath>
				<g opacity="0.4" clip-path="url(#SVGID_20_)">
					<g>
						<defs>
							<rect id="SVGID_21_" width="100" height="100"/>
						</defs>
						<clipPath id="SVGID_22_">
							<use xlink:href="#SVGID_21_"  overflow="visible"/>
						</clipPath>
						<g clip-path="url(#SVGID_22_)">
							<defs>
								<rect id="SVGID_23_" width="100" height="100"/>
							</defs>
							<clipPath id="SVGID_24_">
								<use xlink:href="#SVGID_23_"  overflow="visible"/>
							</clipPath>
							
								<line clip-path="url(#SVGID_24_)" fill="none" stroke="#000000" stroke-width="0.25" stroke-miterlimit="10" x1="50" y1="0" x2="50" y2="100"/>
							
								<line clip-path="url(#SVGID_24_)" fill="none" stroke="#000000" stroke-width="0.25" stroke-miterlimit="10" x1="100" y1="50" x2="0" y2="50"/>
							
								<line clip-path="url(#SVGID_24_)" fill="none" stroke="#000000" stroke-width="0.25" stroke-miterlimit="10" x1="100" y1="33.333" x2="0" y2="33.333"/>
							
								<line clip-path="url(#SVGID_24_)" fill="none" stroke="#000000" stroke-width="0.25" stroke-miterlimit="10" x1="100" y1="66.667" x2="0" y2="66.667"/>
							
								<line clip-path="url(#SVGID_24_)" fill="none" stroke="#000000" stroke-width="0.25" stroke-miterlimit="10" x1="66.667" y1="100" x2="66.667" y2="0"/>
							
								<line clip-path="url(#SVGID_24_)" fill="none" stroke="#000000" stroke-width="0.25" stroke-miterlimit="10" x1="33.333" y1="100" x2="33.333" y2="0"/>
							
								<line clip-path="url(#SVGID_24_)" fill="none" stroke="#000000" stroke-width="0.25" stroke-miterlimit="10" x1="99.479" y1="0.521" x2="0.521" y2="99.479"/>
							
								<line clip-path="url(#SVGID_24_)" fill="none" stroke="#000000" stroke-width="0.25" stroke-miterlimit="10" x1="0.521" y1="0.521" x2="99.479" y2="99.479"/>
							<path clip-path="url(#SVGID_24_)" fill="none" stroke="#000000" stroke-width="0.25" stroke-miterlimit="10" d="
								M50.002,29.167c-11.507,0-20.835,9.327-20.835,20.833c0,11.503,9.329,20.833,20.835,20.833
								c11.503,0,20.833-9.33,20.833-20.833C70.835,38.494,61.505,29.167,50.002,29.167z"/>
							
								<ellipse transform="matrix(0.9718 -0.2357 0.2357 0.9718 -10.3775 13.1958)" clip-path="url(#SVGID_24_)" fill="none" stroke="#000000" stroke-width="0.25" stroke-miterlimit="10" cx="50" cy="50" rx="41.667" ry="41.667"/>
							<path clip-path="url(#SVGID_24_)" fill="none" stroke="#000000" stroke-width="0.25" stroke-miterlimit="10" d="M79.167,12.5
								H20.833c-4.607,0-8.333,3.731-8.333,8.333v58.333c0,4.602,3.726,8.333,8.333,8.333h58.333c4.605,0,8.333-3.731,8.333-8.333
								V20.833C87.5,16.231,83.772,12.5,79.167,12.5z"/>
							<path clip-path="url(#SVGID_24_)" fill="none" stroke="#000000" stroke-width="0.25" stroke-miterlimit="10" d="
								M83.333,16.667H16.667c-4.602,0-8.333,3.731-8.333,8.333v50c0,4.602,3.731,8.333,8.333,8.333h66.667
								c4.603,0,8.334-3.731,8.334-8.333V25C91.667,20.398,87.936,16.667,83.333,16.667z"/>
							<path clip-path="url(#SVGID_24_)" fill="none" stroke="#000000" stroke-width="0.25" stroke-miterlimit="10" d="
								M83.333,83.333V16.667c0-4.602-3.731-8.333-8.333-8.333H25c-4.602,0-8.333,3.731-8.333,8.333v66.667
								c0,4.603,3.731,8.334,8.333,8.334h50C79.602,91.667,83.333,87.936,83.333,83.333z"/>
							<path clip-path="url(#SVGID_24_)" d="M99.479,99.479H0.521V0.521h98.959V99.479z M100,0H0v100h100V0z"/>
						</g>
					</g>
				</g>
			</g>
		</g>
	</g>
</g>
<g id="Camera">
	<path d="M41.514,24.196c7.337,0,13.286,5.947,13.286,13.285s-5.948,13.285-13.286,13.285c-7.338,0-13.285-5.947-13.285-13.285
		S34.176,24.196,41.514,24.196z M83.028,16.724v41.514c0,4.564-3.738,8.303-8.303,8.303H8.303C3.738,66.541,0,62.802,0,58.238
		V16.724c0-4.566,3.738-8.303,8.303-8.303h13.16l7.597-8.303h24.908l7.598,8.303h13.16C79.29,8.421,83.028,12.159,83.028,16.724z
		 M62.271,37.482c0-11.457-9.299-20.757-20.756-20.757c-11.457,0-20.757,9.3-20.757,20.757c0,11.456,9.3,20.757,20.757,20.757
		C52.972,58.238,62.271,48.938,62.271,37.482z"/>
	<path display="none" d="M79.17,37.493c-2.298,0-4.163-1.864-4.163-4.164c0-2.299,1.865-4.164,4.163-4.164
		c2.299,0,4.164,1.864,4.164,4.164C83.334,35.629,81.469,37.493,79.17,37.493z"/>
	<path display="none" d="M60.618,16.837l6.349,6.938l1.249,1.365h1.85h13.16c2.263,0,4.103,1.84,4.103,4.103V79.06
		c0,2.263-1.84,4.103-4.103,4.103H16.803c-2.262,0-4.102-1.84-4.102-4.103V29.243c0-2.263,1.84-4.103,4.102-4.103h13.16h1.85
		l1.249-1.365l6.348-6.938H60.618 M50.014,74.942c11.464,0,20.792-9.327,20.792-20.791c0-11.465-9.327-20.792-20.792-20.792
		c-11.465,0-20.792,9.327-20.792,20.792C29.222,65.615,38.549,74.942,50.014,74.942 M62.468,12.637H37.56l-7.597,8.303h-13.16
		c-4.565,0-8.303,3.738-8.303,8.303V79.06c0,4.564,3.738,8.303,8.303,8.303h66.423c4.564,0,8.303-3.738,8.303-8.303V29.243
		c0-4.566-3.738-8.303-8.303-8.303h-13.16L62.468,12.637L62.468,12.637z M50.014,70.742c-9.158,0-16.592-7.434-16.592-16.591
		c0-9.158,7.434-16.592,16.592-16.592c9.158,0,16.591,7.434,16.591,16.592C66.605,63.309,59.172,70.742,50.014,70.742L50.014,70.742
		z"/>
</g>
<g id="Mask" display="none">
	<path display="inline" fill="#FFFFFF" d="M81.229,62.445c-10.323,0-18.688,8.365-18.688,18.686
		c0,10.323,8.365,18.689,18.688,18.689c10.321,0,18.687-8.365,18.687-18.689C99.915,70.811,91.55,62.445,81.229,62.445z"/>
	<path display="inline" d="M81.207,66.57c-8.032,0-14.542,6.51-14.542,14.541c0,8.032,6.51,14.542,14.542,14.542
		c8.031,0,14.541-6.51,14.541-14.542C95.748,73.08,89.238,66.57,81.207,66.57z M83.333,83.333v8.334h-4.166v-8.334h-8.334v-4.166
		h8.334v-8.334l4.166,0.083v8.251h8.334v4.166H83.333z"/>
	<path display="inline" fill="#FFFFFF" d="M83.333,79.167h8.334v4.166h-8.334v8.334h-4.166v-8.334h-8.334v-4.166h8.334v-8.334
		l4.166,0.083V79.167z"/>
</g>
</svg>
