<svg xmlns="http://www.w3.org/2000/svg" viewBox="0 0 1049.68 792"><path fill="#1A1E1E" d="M0 0h1049.68v792H0z"/><path fill="#0A0D14" d="M12.034 119.573H279.45v659.551H12.034zM1034.285 538.589v100.635H770.869V538.589h263.416m2-2H768.869v104.635h267.416V536.589zM1034.285 248.376v266.181H770.869V248.376h263.416m2-2H768.869v270.181h267.416V246.376zM887.487 203.514l-18.075 22.831H768.869V15.215h267.416v188.276zM259.472 17.215v82.381H30.888V17.215h228.584m2-2H28.888v86.381h232.584V15.215zM512.57 639.793v82.381H299.746v-82.381H512.57m2-2H297.746v86.381H514.57v-86.381zM750.877 639.793v82.381H538.053v-82.381h212.824m2-2H536.053v86.381h216.824v-86.381zM512.57 172.034v440.924H299.746V172.034H512.57m2-2H297.746v444.924H514.57V170.034zM750.877 172.034v440.924H538.053V172.034h212.824m2-2H536.053v444.924h216.824V170.034z"/><path fill="#1A1E1E" d="M187.562 137.303v167.858h-19.35v286.733h19.35v166.128H30.888V137.303h156.674m2-2H28.888v624.719h160.674V589.895h-19.35V307.161h19.35V135.303zM259.472 137.303v620.719h-58.359V591.895h20.921V305.161h-20.921V137.303h58.359m2-2h-62.359v171.858h20.921v282.733h-20.921v170.128h62.359V135.303z"/><path fill="#1A1E1E" d="M54.471 206.52H165.23v39.857H54.471zM165.23 297.461v-39.857H54.471v383.62H165.23v-39.856h-12.455V297.461z"/><path fill="#0A0D14" d="M84.118 582.388H69.522c-4.689 0-8.525 3.836-8.525 8.525v34.269c0 4.689 3.836 8.525 8.525 8.525h14.596c4.689 0 8.525-3.836 8.525-8.525v-34.269c.001-4.689-3.836-8.525-8.525-8.525zM84.118 520.448H69.522c-4.689 0-8.525 3.836-8.525 8.525v34.269c0 4.689 3.836 8.525 8.525 8.525h14.596c4.689 0 8.525-3.836 8.525-8.525v-34.269c.001-4.689-3.836-8.525-8.525-8.525zM791.991 717.263h-14.596c-4.689 0-8.525 3.836-8.525 8.525v34.269c0 4.689 3.836 8.525 8.525 8.525h14.596c4.689 0 8.525-3.836 8.525-8.525v-34.269c.001-4.688-3.836-8.525-8.525-8.525zM791.991 655.323h-14.596c-4.689 0-8.525 3.836-8.525 8.525v34.269c0 4.689 3.836 8.525 8.525 8.525h14.596c4.689 0 8.525-3.836 8.525-8.525v-34.269c.001-4.688-3.836-8.525-8.525-8.525z"/><path fill="#212726" d="M991.085 343.167v44.375h-35.236v-44.375h35.236m2-2h-39.236v48.375h39.236v-48.375z"/><path fill="#3E1211" d="M897.267 718.381v-23.475a4.098 4.098 0 00-4.086-4.086h-43.148a4.098 4.098 0 00-4.086 4.086v23.475a4.098 4.098 0 004.086 4.086h43.148a4.098 4.098 0 004.086-4.086z"/><path fill="#0A0D14" d="M871.607 584.441v-36.362a4.098 4.098 0 00-4.086-4.086h-64.045a4.098 4.098 0 00-4.086 4.086v36.362a4.098 4.098 0 004.086 4.086h64.045a4.098 4.098 0 004.086-4.086zM502.039 685.734v-36.362a4.098 4.098 0 00-4.086-4.086h-64.045a4.098 4.098 0 00-4.086 4.086v36.362a4.098 4.098 0 004.086 4.086h64.045a4.098 4.098 0 004.086-4.086z"/><path fill="#3E1211" d="M959.207 718.395v-23.503a4.083 4.083 0 00-4.072-4.072h-43.176a4.083 4.083 0 00-4.072 4.072v23.503a4.083 4.083 0 004.072 4.072h43.176a4.084 4.084 0 004.072-4.072zM1036.285 718.395v-23.503a4.083 4.083 0 00-4.072-4.072h-23.503a4.083 4.083 0 00-4.072 4.072v23.503a4.083 4.083 0 004.072 4.072h23.503a4.084 4.084 0 004.072-4.072z"/><path fill="#0A0D14" d="M72.988 32.967H40.787a3.58 3.58 0 01-3.569-3.569V27.31a3.58 3.58 0 013.569-3.569h32.201a3.58 3.58 0 013.569 3.569v2.087a3.58 3.58 0 01-3.569 3.57zM121.32 32.967H89.119a3.58 3.58 0 01-3.569-3.569V27.31a3.58 3.58 0 013.569-3.569h32.201a3.58 3.58 0 013.569 3.569v2.087a3.58 3.58 0 01-3.569 3.57z"/><circle fill="#3E1211" cx="194.28" cy="321.365" r="8.554"/><circle fill="#3E1211" cx="968.762" cy="365.354" r="8.554"/><circle fill="#3E1211" cx="930.542" cy="365.354" r="8.554"/><circle fill="#3E1211" cx="907.956" cy="365.354" r="8.554"/><circle fill="#3E1211" cx="443.771" cy="308.82" r="8.554"/><circle fill="#3E1211" cx="413.55" cy="308.82" r="8.554"/><circle fill="#3E1211" cx="349.197" cy="308.82" r="8.554"/><circle fill="#3E1211" cx="637.388" cy="308.82" r="8.554"/><circle fill="#3E1211" cx="605.211" cy="308.82" r="8.554"/><circle fill="#FFF" cx="840.539" cy="365.354" r="8.554"/><circle fill="#0A0D14" cx="802.318" cy="365.354" r="8.554"/><circle fill="#3E1211" cx="194.28" cy="577.337" r="8.554"/><circle fill="#FFF" cx="194.28" cy="355.392" r="8.554"/><circle fill="#FFF" cx="194.28" cy="490.478" r="8.554"/><circle fill="#3E1211" cx="194.28" cy="513.052" r="8.554"/><circle fill="#3E1211" cx="194.28" cy="443.069" r="8.554"/><path fill="#0A0D14" d="M812.487 264.217h-32.201a3.58 3.58 0 01-3.569-3.569v-2.087a3.58 3.58 0 013.569-3.569h32.201a3.58 3.58 0 013.569 3.569v2.087a3.58 3.58 0 01-3.569 3.569zM860.82 264.217h-32.201a3.58 3.58 0 01-3.569-3.569v-2.087a3.58 3.58 0 013.569-3.569h32.201a3.58 3.58 0 013.569 3.569v2.087a3.58 3.58 0 01-3.569 3.569zM453.137 189.398h-32.201a3.58 3.58 0 01-3.569-3.569v-2.087a3.58 3.58 0 013.569-3.569h32.201a3.58 3.58 0 013.569 3.569v2.087a3.58 3.58 0 01-3.569 3.569zM501.47 189.398h-32.201a3.58 3.58 0 01-3.569-3.569v-2.087a3.58 3.58 0 013.569-3.569h32.201a3.58 3.58 0 013.569 3.569v2.087a3.58 3.58 0 01-3.569 3.569z"/><path fill="#212726" d="M463.7 286.632v44.375H334.015v-44.375H463.7m2-2H332.015v48.375H465.7v-48.375z"/><path fill="#3E1211" d="M981.051 328.308v93.268H827.05v-93.268h154.001m2-2H825.05v97.268h158.001v-97.268zM427.821 259.604V406.41H318.023V259.604h109.798m2-2H316.023V408.41h113.798V257.604z"/><path fill="#212726" d="M656.243 286.632v44.375H556.179v-44.375h100.064m2-2H554.179v48.375h104.064v-48.375z"/><path fill="#3E1211" d="M731.975 259.604V406.41H622.176V259.604h109.799m2-2H620.176V408.41h113.798V257.604h.001z"/><circle fill="#0A0D14" cx="970.992" cy="554.391" r="10.783"/><circle fill="#0A0D14" cx="1000.323" cy="554.391" r="10.783"/><circle fill="#0A0D14" cx="712.762" cy="69.189" r="10.783"/><circle fill="#0A0D14" cx="742.093" cy="69.189" r="10.783"/><path d="M883.873 768.583h152.412v-15.47H894.493z"/><circle cx="862.275" cy="757.011" r="3.898"/><circle cx="850.508" cy="757.011" r="3.898"/><path fill="#212726" d="M944.741 343.167v44.375H778.718v-44.375h166.023m2-2H776.718v48.375h170.024v-48.375h-.001z"/><path fill="#1A1E1E" d="M1016.588 12.215v22.071h-79.89v-8.641h-89.605v8.641h-56.351V12.215h225.846m2-2H788.742v26.071h60.351v-8.641h85.605v8.641h83.89V10.215z"/><circle fill="#1A1E1E" cx="813.085" cy="46.845" r="3.898"/><circle fill="#1A1E1E" cx="801.318" cy="46.845" r="3.898"/><path fill="#0A0D14" d="M984.384 220.947h-32.201a3.58 3.58 0 01-3.569-3.569v-2.087a3.58 3.58 0 013.569-3.569h32.201a3.58 3.58 0 013.569 3.569v2.087a3.58 3.58 0 01-3.569 3.569zM1032.716 220.947h-32.201a3.58 3.58 0 01-3.569-3.569v-2.087a3.58 3.58 0 013.569-3.569h32.201a3.58 3.58 0 013.569 3.569v2.087a3.58 3.58 0 01-3.569 3.569z"/></svg>