<svg xmlns="http://www.w3.org/2000/svg" viewBox="0 0 1049.68 792"><path fill="#020611" d="M12.03 119.57h267.42v659.55H12.03zM1034.29 538.59v100.63H770.87V538.6h263.42m2-2H768.87v104.63h267.42V536.6zM1034.29 248.38v266.18H770.87V248.38h263.42m2-2H768.87v270.18h267.42V246.38zM887.49 203.51l-18.08 22.84H768.87V15.22h267.42v188.27zM259.47 17.21V99.6H30.9V17.22h228.58m2-2H28.9v86.38h232.58V15.22zM512.57 639.8v82.37H299.75V639.8h212.82m2-2H297.75v86.38h216.82V637.8zM750.88 639.8v82.37H538.05V639.8h212.83m2-2H536.05v86.38h216.83V637.8zM512.57 172.03v440.93H299.75V172.03h212.82m2-2H297.75v444.93h216.82V170.03zM750.88 172.03v440.93H538.05V172.03h212.83m2-2H536.05v444.93h216.83V170.03z"/><path fill="#16181b" d="M187.56 137.3v167.86h-19.35V591.9h19.35v166.13H30.9V137.3h156.67m2-2H28.9v624.72h160.67V589.9h-19.35V307.16h19.35V135.3zM259.47 137.3v620.72h-58.36V591.9h20.92V305.16h-20.92V137.3h58.36m2-2h-62.36v171.86h20.92V589.9h-20.92v170.13h62.36V135.3z"/><path fill="#16181b" d="M54.47 206.52h110.76v39.86H54.47zM165.23 297.46V257.6H54.47v383.62h110.76v-39.85h-12.45v-303.9z"/><path fill="#020611" d="M84.12 582.39h-14.6A8.55 8.55 0 0061 590.9v34.27a8.55 8.55 0 008.52 8.53h14.6a8.55 8.55 0 008.52-8.53v-34.27a8.55 8.55 0 00-8.52-8.52zM84.12 520.45h-14.6a8.55 8.55 0 00-8.52 8.52v34.27a8.55 8.55 0 008.52 8.53h14.6a8.55 8.55 0 008.52-8.53v-34.27a8.55 8.55 0 00-8.52-8.52zM792 717.26h-14.6a8.55 8.55 0 00-8.53 8.53v34.27a8.55 8.55 0 008.53 8.52H792a8.55 8.55 0 008.52-8.52v-34.27a8.55 8.55 0 00-8.53-8.53zM792 655.32h-14.6a8.55 8.55 0 00-8.53 8.53v34.27a8.55 8.55 0 008.53 8.52H792a8.55 8.55 0 008.52-8.52v-34.27a8.55 8.55 0 00-8.53-8.53z"/><path fill="#333" d="M991.09 343.17v44.37h-35.24v-44.37h35.24m2-2h-39.24v48.37h39.24v-48.37z"/><path fill="#C00" d="M897.27 718.38v-23.47a4.1 4.1 0 00-4.09-4.09h-43.15a4.1 4.1 0 00-4.08 4.09v23.47a4.1 4.1 0 004.08 4.09h43.15a4.1 4.1 0 004.09-4.09z"/><path fill="#020611" d="M871.6 584.44v-36.36a4.1 4.1 0 00-4.08-4.09h-64.04a4.1 4.1 0 00-4.09 4.09v36.36a4.1 4.1 0 004.09 4.09h64.04a4.1 4.1 0 004.09-4.09zM502.04 685.73v-36.36a4.1 4.1 0 00-4.09-4.08h-64.04a4.1 4.1 0 00-4.09 4.08v36.36a4.1 4.1 0 004.09 4.09h64.04a4.1 4.1 0 004.09-4.09z"/><path fill="#C00" d="M959.2 718.4v-23.5a4.08 4.08 0 00-4.07-4.08h-43.17a4.08 4.08 0 00-4.07 4.07v23.5a4.08 4.08 0 004.07 4.08h43.17a4.08 4.08 0 004.08-4.08zM1036.29 718.4v-23.5a4.08 4.08 0 00-4.08-4.08h-23.5a4.08 4.08 0 00-4.07 4.07v23.5a4.08 4.08 0 004.07 4.08h23.5a4.08 4.08 0 004.08-4.08z"/><path d="M72.99 32.97h-32.2a3.58 3.58 0 01-3.57-3.57V27.3c0-1.96 1.6-3.57 3.57-3.57h32.2c1.96 0 3.57 1.6 3.57 3.57v2.09c0 1.96-1.6 3.57-3.57 3.57zM121.32 32.97h-32.2a3.58 3.58 0 01-3.57-3.57V27.3c0-1.96 1.6-3.57 3.57-3.57h32.2c1.96 0 3.57 1.6 3.57 3.57v2.09c0 1.96-1.6 3.57-3.57 3.57z"/><circle fill="#C00" cx="194.28" cy="321.37" r="8.55"/><circle fill="#C00" cx="968.76" cy="365.35" r="8.55"/><circle fill="#C00" cx="930.54" cy="365.35" r="8.55"/><circle fill="#C00" cx="907.96" cy="365.35" r="8.55"/><circle fill="#C00" cx="443.77" cy="308.82" r="8.55"/><circle fill="#C00" cx="413.55" cy="308.82" r="8.55"/><circle fill="#C00" cx="349.2" cy="308.82" r="8.55"/><circle fill="#C00" cx="637.39" cy="308.82" r="8.55"/><circle fill="#C00" cx="605.21" cy="308.82" r="8.55"/><circle fill="#FFF" cx="840.54" cy="365.35" r="8.55"/><circle cx="802.32" cy="365.35" r="8.55"/><circle fill="#C00" cx="194.28" cy="577.34" r="8.55"/><circle fill="#FFF" cx="194.28" cy="355.39" r="8.55"/><circle fill="#FFF" cx="194.28" cy="490.48" r="8.55"/><circle fill="#C00" cx="194.28" cy="513.05" r="8.55"/><circle fill="#C00" cx="194.28" cy="443.07" r="8.55"/><path d="M812.49 264.22h-32.2a3.58 3.58 0 01-3.57-3.57v-2.09c0-1.96 1.6-3.57 3.57-3.57h32.2c1.96 0 3.57 1.6 3.57 3.57v2.09c0 1.96-1.61 3.57-3.57 3.57zM860.82 264.22h-32.2a3.58 3.58 0 01-3.57-3.57v-2.09c0-1.96 1.6-3.57 3.57-3.57h32.2c1.96 0 3.57 1.6 3.57 3.57v2.09c0 1.96-1.6 3.57-3.57 3.57zM453.14 189.4h-32.2a3.58 3.58 0 01-3.57-3.57v-2.09c0-1.96 1.6-3.57 3.57-3.57h32.2c1.96 0 3.57 1.6 3.57 3.57v2.09c0 1.96-1.61 3.57-3.57 3.57zM501.47 189.4h-32.2a3.58 3.58 0 01-3.57-3.57v-2.09c0-1.96 1.6-3.57 3.57-3.57h32.2c1.96 0 3.57 1.6 3.57 3.57v2.09c0 1.96-1.6 3.57-3.57 3.57z"/><path fill="#ABABAB" d="M463.7 286.63v44.38H334.01v-44.38H463.7m2-2H332.01v48.38H465.7v-48.38z"/><path fill="#C00" d="M981.05 328.3v93.28h-154V328.3h154m2-2h-158v97.27h158V326.3zM427.82 259.6v146.81h-109.8v-146.8h109.8m2-2h-113.8v150.8h113.8v-150.8z"/><path fill="#333" d="M656.24 286.63v44.38H556.18v-44.38h100.06m2-2H554.18v48.38h104.06v-48.38z"/><path fill="#C00" d="M731.98 259.6v146.81h-109.8v-146.8h109.8m2-2h-113.8v150.8h113.8v-150.8z"/><circle fill="#020611" cx="970.99" cy="554.39" r="10.78"/><circle cx="1000.32" cy="554.39" r="10.78"/><circle fill="#020611" cx="712.76" cy="69.19" r="10.78"/><circle fill="#020611" cx="742.09" cy="69.19" r="10.78"/><path fill="#020611" d="M897.27 792h152.41v-15.47h-141.8z"/><circle cx="881.25" cy="780.43" r="3.9"/><circle cx="869.49" cy="780.43" r="3.9"/><path fill="#333" d="M944.74 343.17v44.37H778.72v-44.37h166.02m2-2H776.72v48.37h170.02v-48.37z"/><path fill="#16181b" d="M1016.59 12.21V34.3h-79.9v-8.64h-89.6v8.64h-56.35V12.22h225.85m2-2H788.74v26.07h60.35v-8.64h85.6v8.64h83.9V10.22z"/><circle fill="#16181b" cx="813.09" cy="46.84" r="3.9"/><circle fill="#16181b" cx="801.32" cy="46.84" r="3.9"/><path fill="#020611" d="M984.38 220.95h-32.2a3.58 3.58 0 01-3.57-3.57v-2.09c0-1.96 1.61-3.57 3.57-3.57h32.2c1.97 0 3.57 1.6 3.57 3.57v2.09c0 1.96-1.6 3.57-3.57 3.57zM1032.72 220.95h-32.2a3.58 3.58 0 01-3.57-3.57v-2.09c0-1.96 1.6-3.57 3.56-3.57h32.2c1.97 0 3.57 1.6 3.57 3.57v2.09c0 1.96-1.6 3.57-3.56 3.57z"/></svg>