<?xml version="1.0" encoding="utf-8"?>
<!-- Generator: Adobe Illustrator 25.2.3, SVG Export Plug-In . SVG Version: 6.00 Build 0)  -->
<svg version="1.1" id="Layer_1" xmlns="http://www.w3.org/2000/svg" xmlns:xlink="http://www.w3.org/1999/xlink" x="0px" y="0px"
	 viewBox="0 0 1049.68 792" enable-background="new 0 0 1049.68 792" xml:space="preserve">
<rect fill="#1A1E1E" width="1049.68" height="792"/>
<rect x="12.034" y="119.573" fill="#0A0D14" width="267.416" height="659.551"/>
<g>
	<path fill="#0A0D14" d="M1034.285,538.589v100.635H770.869V538.589H1034.285 M1036.285,536.589H768.869v104.635h267.416V536.589
		L1036.285,536.589z"/>
</g>
<g>
	<path fill="#0A0D14" d="M1034.285,248.376v266.181H770.869V248.376H1034.285 M1036.285,246.376H768.869v270.181h267.416V246.376
		L1036.285,246.376z"/>
</g>
<g>
	<polygon fill="#0A0D14" points="887.487,203.514 869.412,226.345 768.869,226.345 768.869,15.215 1036.285,15.215 
		1036.285,203.491 	"/>
</g>
<g>
	<path fill="#0A0D14" d="M259.472,17.215v82.381H30.888V17.215H259.472 M261.472,15.215H28.888v86.381h232.584V15.215
		L261.472,15.215z"/>
</g>
<g>
	<path fill="#0A0D14" d="M512.57,639.793v82.381H299.746v-82.381H512.57 M514.57,637.793H297.746v86.381H514.57V637.793
		L514.57,637.793z"/>
</g>
<g>
	<path fill="#0A0D14" d="M750.877,639.793v82.381H538.053v-82.381H750.877 M752.877,637.793H536.053v86.381h216.824V637.793
		L752.877,637.793z"/>
</g>
<g>
	<path fill="#0A0D14" d="M512.57,172.034v440.924H299.746V172.034H512.57 M514.57,170.034H297.746v444.924H514.57V170.034
		L514.57,170.034z"/>
</g>
<g>
	<path fill="#0A0D14" d="M750.877,172.034v440.924H538.053V172.034H750.877 M752.877,170.034H536.053v444.924h216.824V170.034
		L752.877,170.034z"/>
</g>
<g>
	<path fill="#1A1E1E" d="M187.562,137.303v167.858h-17.35h-2v2v282.733v2h2h17.35v166.128H30.888V137.303H187.562 M189.562,135.303
		H28.888v624.719h160.674V589.895h-19.35V307.161h19.35V135.303L189.562,135.303z"/>
</g>
<g>
	<path fill="#1A1E1E" d="M259.472,137.303v620.719h-58.359V591.895h18.921h2v-2V307.161v-2h-2h-18.921V137.303H259.472
		 M261.472,135.303h-62.359v171.858h20.921v282.733h-20.921v170.128h62.359V135.303L261.472,135.303z"/>
</g>
<rect x="54.471" y="206.52" fill="#1A1E1E" width="110.759" height="39.857"/>
<polygon fill="#1A1E1E" points="165.23,297.461 165.23,257.604 54.471,257.604 54.471,289.306 54.471,297.461 54.471,601.368 
	54.471,614.873 54.471,641.224 165.23,641.224 165.23,601.368 152.775,601.368 152.775,297.461 "/>
<path fill="#0A0D14" d="M84.118,582.388H69.522c-4.689,0-8.525,3.836-8.525,8.525v34.269c0,4.689,3.836,8.525,8.525,8.525h14.596
	c4.689,0,8.525-3.836,8.525-8.525v-34.269C92.644,586.224,88.807,582.388,84.118,582.388z"/>
<path fill="#0A0D14" d="M84.118,520.448H69.522c-4.689,0-8.525,3.836-8.525,8.525v34.269c0,4.689,3.836,8.525,8.525,8.525h14.596
	c4.689,0,8.525-3.836,8.525-8.525v-34.269C92.644,524.284,88.807,520.448,84.118,520.448z"/>
<path fill="#0A0D14" d="M791.991,717.263h-14.596c-4.689,0-8.525,3.836-8.525,8.525v34.269c0,4.689,3.836,8.525,8.525,8.525h14.596
	c4.689,0,8.525-3.836,8.525-8.525v-34.269C800.517,721.1,796.68,717.263,791.991,717.263z"/>
<path fill="#0A0D14" d="M791.991,655.323h-14.596c-4.689,0-8.525,3.836-8.525,8.525v34.269c0,4.689,3.836,8.525,8.525,8.525h14.596
	c4.689,0,8.525-3.836,8.525-8.525v-34.269C800.517,659.16,796.68,655.323,791.991,655.323z"/>
<g>
	<path fill="#212726" d="M991.085,343.167v44.375h-35.236v-44.375H991.085 M993.085,341.167h-39.236v48.375h39.236V341.167
		L993.085,341.167z"/>
</g>
<path fill="#3E1211" d="M897.267,718.381v-23.475c0-2.247-1.839-4.086-4.086-4.086h-43.148c-2.247,0-4.086,1.839-4.086,4.086v23.475
	c0,2.247,1.839,4.086,4.086,4.086h43.148C895.429,722.467,897.267,720.628,897.267,718.381z"/>
<path fill="#0A0D14" d="M871.607,584.441v-36.362c0-2.247-1.839-4.086-4.086-4.086h-64.045c-2.247,0-4.086,1.839-4.086,4.086v36.362
	c0,2.247,1.839,4.086,4.086,4.086h64.045C869.769,588.527,871.607,586.688,871.607,584.441z"/>
<path fill="#0A0D14" d="M502.039,685.734v-36.362c0-2.247-1.839-4.086-4.086-4.086h-64.045c-2.247,0-4.086,1.839-4.086,4.086v36.362
	c0,2.247,1.839,4.086,4.086,4.086h64.045C500.2,689.82,502.039,687.981,502.039,685.734z"/>
<path fill="#3E1211" d="M959.207,718.395v-23.503c0-2.24-1.832-4.072-4.072-4.072h-43.176c-2.24,0-4.072,1.832-4.072,4.072v23.503
	c0,2.24,1.832,4.072,4.072,4.072h43.176C957.375,722.467,959.207,720.634,959.207,718.395z"/>
<path fill="#3E1211" d="M1036.285,718.395v-23.503c0-2.24-1.832-4.072-4.072-4.072h-23.503c-2.24,0-4.072,1.832-4.072,4.072v23.503
	c0,2.24,1.832,4.072,4.072,4.072h23.503C1034.453,722.467,1036.285,720.634,1036.285,718.395z"/>
<path fill="#0A0D14" d="M72.988,32.967H40.787c-1.963,0-3.569-1.606-3.569-3.569V27.31c0-1.963,1.606-3.569,3.569-3.569h32.201
	c1.963,0,3.569,1.606,3.569,3.569v2.087C76.557,31.361,74.951,32.967,72.988,32.967z"/>
<path fill="#0A0D14" d="M121.32,32.967H89.119c-1.963,0-3.569-1.606-3.569-3.569V27.31c0-1.963,1.606-3.569,3.569-3.569h32.201
	c1.963,0,3.569,1.606,3.569,3.569v2.087C124.889,31.361,123.283,32.967,121.32,32.967z"/>
<circle fill="#3E1211" cx="194.28" cy="321.365" r="8.554"/>
<circle fill="#3E1211" cx="968.762" cy="365.354" r="8.554"/>
<circle fill="#3E1211" cx="930.542" cy="365.354" r="8.554"/>
<circle fill="#3E1211" cx="907.956" cy="365.354" r="8.554"/>
<circle fill="#3E1211" cx="443.771" cy="308.82" r="8.554"/>
<circle fill="#3E1211" cx="413.55" cy="308.82" r="8.554"/>
<circle fill="#3E1211" cx="349.197" cy="308.82" r="8.554"/>
<circle fill="#3E1211" cx="637.388" cy="308.82" r="8.554"/>
<circle fill="#3E1211" cx="605.211" cy="308.82" r="8.554"/>
<circle fill="#FFFFFF" cx="840.539" cy="365.354" r="8.554"/>
<circle fill="#0A0D14" cx="802.318" cy="365.354" r="8.554"/>
<circle fill="#3E1211" cx="194.28" cy="577.337" r="8.554"/>
<circle fill="#FFFFFF" cx="194.28" cy="355.392" r="8.554"/>
<circle fill="#FFFFFF" cx="194.28" cy="490.478" r="8.554"/>
<circle fill="#3E1211" cx="194.28" cy="513.052" r="8.554"/>
<circle fill="#3E1211" cx="194.28" cy="443.069" r="8.554"/>
<path fill="#0A0D14" d="M812.487,264.217h-32.201c-1.963,0-3.569-1.606-3.569-3.569v-2.087c0-1.963,1.606-3.569,3.569-3.569h32.201
	c1.963,0,3.569,1.606,3.569,3.569v2.087C816.056,262.611,814.45,264.217,812.487,264.217z"/>
<path fill="#0A0D14" d="M860.82,264.217h-32.201c-1.963,0-3.569-1.606-3.569-3.569v-2.087c0-1.963,1.606-3.569,3.569-3.569h32.201
	c1.963,0,3.569,1.606,3.569,3.569v2.087C864.389,262.611,862.783,264.217,860.82,264.217z"/>
<path fill="#0A0D14" d="M453.137,189.398h-32.201c-1.963,0-3.569-1.606-3.569-3.569v-2.087c0-1.963,1.606-3.569,3.569-3.569h32.201
	c1.963,0,3.569,1.606,3.569,3.569v2.087C456.706,187.792,455.1,189.398,453.137,189.398z"/>
<path fill="#0A0D14" d="M501.47,189.398h-32.201c-1.963,0-3.569-1.606-3.569-3.569v-2.087c0-1.963,1.606-3.569,3.569-3.569h32.201
	c1.963,0,3.569,1.606,3.569,3.569v2.087C505.039,187.792,503.433,189.398,501.47,189.398z"/>
<g>
	<path fill="#212726" d="M463.7,286.632v44.375H334.015v-44.375H463.7 M465.7,284.632H332.015v48.375H465.7V284.632L465.7,284.632z"
		/>
</g>
<g>
	<path fill="#3E1211" d="M981.051,328.308v93.268H827.05v-93.268H981.051 M983.051,326.308H825.05v97.268h158.001V326.308
		L983.051,326.308z"/>
</g>
<g>
	<path fill="#3E1211" d="M427.821,259.604V406.41H318.023V259.604H427.821 M429.821,257.604H316.023V408.41h113.798V257.604
		L429.821,257.604z"/>
</g>
<g>
	<path fill="#212726" d="M656.243,286.632v44.375H556.179v-44.375H656.243 M658.243,284.632H554.179v48.375h104.064V284.632
		L658.243,284.632z"/>
</g>
<g>
	<path fill="#3E1211" d="M731.975,259.604V406.41H622.176V259.604H731.975 M733.975,257.604H620.176V408.41h113.798V257.604
		L733.975,257.604z"/>
</g>
<circle fill="#0A0D14" cx="970.992" cy="554.391" r="10.783"/>
<circle fill="#0A0D14" cx="1000.323" cy="554.391" r="10.783"/>
<circle fill="#0A0D14" cx="712.762" cy="69.189" r="10.783"/>
<circle fill="#0A0D14" cx="742.093" cy="69.189" r="10.783"/>
<polygon points="883.873,768.583 1036.285,768.583 1036.285,753.113 894.493,753.113 "/>
<circle cx="862.275" cy="757.011" r="3.898"/>
<circle cx="850.508" cy="757.011" r="3.898"/>
<g>
	<path fill="#212726" d="M944.741,343.167v44.375H778.718v-44.375H944.741 M946.741,341.167H776.718v48.375h170.024V341.167
		L946.741,341.167z"/>
</g>
<g>
	<path fill="#1A1E1E" d="M1016.588,12.215v22.071h-79.89v-6.641v-2h-2h-85.605h-2v2v6.641h-56.351V12.215H1016.588 M1018.588,10.215
		H788.742v26.071h60.351v-8.641h85.605v8.641h83.89V10.215L1018.588,10.215z"/>
</g>
<circle fill="#1A1E1E" cx="813.085" cy="46.845" r="3.898"/>
<circle fill="#1A1E1E" cx="801.318" cy="46.845" r="3.898"/>
<path fill="#0A0D14" d="M984.384,220.947h-32.201c-1.963,0-3.569-1.606-3.569-3.569v-2.087c0-1.963,1.606-3.569,3.569-3.569h32.201
	c1.963,0,3.569,1.606,3.569,3.569v2.087C987.953,219.341,986.347,220.947,984.384,220.947z"/>
<path fill="#0A0D14" d="M1032.716,220.947h-32.201c-1.963,0-3.569-1.606-3.569-3.569v-2.087c0-1.963,1.606-3.569,3.569-3.569h32.201
	c1.963,0,3.569,1.606,3.569,3.569v2.087C1036.285,219.341,1034.679,220.947,1032.716,220.947z"/>
</svg>
