<?xml version="1.0" encoding="utf-8"?>
<!-- Generator: Adobe Illustrator 25.2.1, SVG Export Plug-In . SVG Version: 6.00 Build 0)  -->
<svg version="1.1" xmlns="http://www.w3.org/2000/svg" xmlns:xlink="http://www.w3.org/1999/xlink" x="0px" y="0px"
	 viewBox="0 0 140.501 140.501" enable-background="new 0 0 140.501 140.501" xml:space="preserve">
<g id="Layer_1" display="none">
	<path fill="#25B35B" d="M70.25,5.225c35.855,0,65.025,29.17,65.025,65.025s-29.17,65.025-65.025,65.025S5.225,106.105,5.225,70.25
		S34.395,5.225,70.25,5.225 M70.25,0C31.452,0,0,31.452,0,70.25s31.452,70.25,70.25,70.25s70.25-31.452,70.25-70.25
		S109.049,0,70.25,0L70.25,0z"/>
	<g display="inline">
		<path d="M97.2,90.132L97.2,90.132c-0.026-0.001-0.05-0.002-0.068-0.003C97.147,90.13,97.165,90.13,97.2,90.132z M110.948,96.584
			l-0.088,2.271c-0.002,0.054-0.048,0.097-0.102,0.095l-0.796-0.031l-0.397,10.645l0.779,0.03c0.054,0.002,0.097,0.048,0.095,0.102
			l-0.088,2.271c-0.002,0.054-0.048,0.097-0.102,0.095l-0.323-0.013l-0.386,0.788l-10.156-0.395l-0.28-0.814
			c-0.054-0.002-0.097-0.048-0.095-0.102l0.088-2.271c0.002-0.054,0.048-0.097,0.102-0.095l0.676,0.026l0.107-3.099l-2.137-0.083
			l-0.121,3.11l0.796,0.031c0.054,0.002,0.097,0.048,0.095,0.102l-0.088,2.271c-0.002,0.054-0.048,0.097-0.102,0.095L98.1,111.6
			l-0.386,0.788l-10.156-0.395l-0.28-0.814c-0.054-0.002-0.097-0.048-0.095-0.102l0.088-2.271c0.002-0.054,0.048-0.097,0.102-0.095
			l0.663,0.026l0.051-1.297h-1.54v14.607h-0.473v0.54h-1.962h-0.315h-2.214v-0.54h-0.304l-1.06-9.182l-0.628-0.618v-0.812h-0.967
			c-0.24,0-0.434-0.194-0.434-0.434v-1.672H77.36l0.035,2.674h-2.083l0.009-0.568h-0.654v1.103c0,0.1-0.082,0.181-0.181,0.181
			h-0.371c-0.1,0-0.181-0.082-0.181-0.181v-1.103h-0.844v1.103c0,0.1-0.082,0.181-0.181,0.181h-0.371
			c-0.1,0-0.181-0.082-0.181-0.181v-1.103h-0.94v1.103c0,0.1-0.082,0.181-0.181,0.181h-0.371c-0.1,0-0.181-0.082-0.181-0.181v-1.103
			h-0.94v1.103c0,0.1-0.082,0.181-0.181,0.181h-0.371c-0.1,0-0.181-0.082-0.181-0.181v-1.103h-0.876v1.103
			c0,0.1-0.082,0.181-0.181,0.181h-0.371c-0.1,0-0.181-0.082-0.181-0.181v-1.103h-0.812v1.103c0,0.1-0.082,0.181-0.181,0.181h-0.371
			c-0.1,0-0.181-0.082-0.181-0.181v-1.103h-0.683v0.568h-2.065l-0.002-2.642H62.21v1.64c0,0.239-0.194,0.434-0.434,0.434H61.31
			v0.812l-0.628,0.618l-1.06,9.182h-0.304v0.54h-2.214h-0.315h-1.962v-0.54h-0.473v-14.575h-2.124l-0.034-0.984h2.157v-1.166
			l-2.135,0.216c0,0-0.021,0.005-0.055,0.01l0.112,3.244l0.796-0.028c0.054-0.002,0.1,0.041,0.102,0.095l0.079,2.271
			c0.002,0.054-0.041,0.1-0.095,0.102l-0.323,0.011l-0.327,0.814l-10.158,0.351l-0.339-0.791c-0.054,0.002-0.1-0.041-0.102-0.095
			l-0.079-2.271c-0.002-0.054,0.041-0.1,0.095-0.102l0.663-0.023l-0.111-3.22l-2.121,0.073l0.017,0.484l-0.015,0.027l0.094,2.722
			l0.796-0.028c0.054-0.002,0.1,0.041,0.102,0.095l0.079,2.271c0.002,0.054-0.041,0.1-0.095,0.102l-0.323,0.011l-0.327,0.814
			l-10.158,0.352l-0.339-0.791c-0.054,0.002-0.1-0.041-0.102-0.095l-0.079-2.271c-0.002-0.054,0.041-0.1,0.095-0.102l0.647-0.022
			l-0.353-10.646l-0.663,0.023c-0.054,0.002-0.1-0.041-0.102-0.095l-0.079-2.271c-0.002-0.054,0.041-0.1,0.095-0.102l0.349-0.012
			c-0.06,0.002-0.111-0.045-0.113-0.105l-0.015-0.446c-0.002-0.06,0.045-0.111,0.105-0.113l0.314-0.011l-0.178-5.157
			c-0.011-0.319-0.03-0.91,0.441-1.03c-0.001-0.006-0.004-0.011-0.004-0.017l-0.152-4.389c-0.003-0.087,0.065-0.16,0.152-0.163
			c0.002,0,0.004,0,0.006,0c0.084,0,0.154,0.067,0.157,0.152l0.152,4.389c0,0.005-0.002,0.009-0.002,0.014
			c0.477,0.065,0.495,0.532,0.511,1.001l0.08,2.311l7.166-0.248l-0.08-2.311c-0.011-0.319-0.03-0.91,0.442-1.03
			c-0.001-0.006-0.004-0.011-0.004-0.017l-0.152-4.389c-0.003-0.087,0.065-0.16,0.152-0.163c0.002,0,0.004,0,0.005,0
			c0.084,0,0.154,0.067,0.157,0.152l0.152,4.389c0,0.005-0.002,0.009-0.002,0.014c0.477,0.065,0.495,0.532,0.511,1.001l0.178,5.157
			l0.314-0.011c0.06-0.002,0.111,0.045,0.113,0.105l0.015,0.446c0.002,0.06-0.045,0.111-0.105,0.113l0.482-0.017
			c0.054-0.002,0.1,0.041,0.102,0.095l0.079,2.271c0.002,0.054-0.041,0.1-0.095,0.102l-0.796,0.028l0.082,2.377l0.016-0.001
			l0.037,1.075l2.121-0.073l-0.12-3.464l-0.663,0.023c-0.054,0.002-0.1-0.041-0.102-0.095l-0.079-2.271
			c-0.002-0.054,0.041-0.1,0.095-0.102l0.349-0.012c-0.06,0.002-0.111-0.045-0.113-0.105l-0.015-0.446
			c-0.002-0.06,0.045-0.111,0.105-0.113l0.314-0.011l-0.178-5.157c-0.011-0.319-0.03-0.91,0.442-1.03
			c-0.001-0.006-0.004-0.011-0.004-0.017l-0.152-4.389c-0.003-0.087,0.065-0.16,0.152-0.163c0.002,0,0.004,0,0.005,0
			c0.084,0,0.154,0.067,0.157,0.152l0.152,4.389c0,0.005-0.002,0.009-0.002,0.014c0.477,0.065,0.495,0.532,0.511,1.001
			c-0.073,0.003-0.037,0.005,0,0.008v-0.008l0,0.008c0.037,0.003,0.074,0.005,0,0.008l0.079,2.298l7.166-0.248l-0.08-2.313
			c-0.011-0.319-0.03-0.91,0.442-1.03c-0.001-0.006-0.004-0.011-0.004-0.017l-0.152-4.389c-0.003-0.087,0.065-0.16,0.152-0.163
			c0.002,0,0.004,0,0.005,0c0.084,0,0.154,0.067,0.157,0.152l0.152,4.389c0,0.005-0.002,0.009-0.002,0.014
			c0.477,0.065,0.495,0.532,0.511,1.001l0.178,5.157l0.314-0.011c0.06-0.002,0.111,0.045,0.113,0.105l0.015,0.446
			c0.002,0.06-0.045,0.111-0.105,0.113l0.482-0.017c0.054-0.002,0.1,0.041,0.102,0.095l0.079,2.271
			c0.002,0.054-0.041,0.1-0.095,0.102l-0.796,0.028l0.049,1.411c0.028-0.002,0.046-0.002,0.046-0.002l2.909-0.228v-4.809
			c0-0.24,0.194-0.434,0.434-0.434h6.432c0.24,0,0.434,0.194,0.434,0.434v0.503c0.158-0.157,0.276-0.311,0.321-0.477
			c0.175-0.644-0.224-0.896,0-1.219c0.182-0.263,0.551-0.288,0.767-0.278l0.011-4.201l-0.415-2.194l0.176-6.626l-2.135-3.373
			l-0.337-7.71c0,0-0.193-0.482,0.169-0.626c0.25-0.1,1.737-0.333,2.627-0.467l0.002-0.062c0,0-1.185-11.013-1.185-16.215
			c0-12.934,1.347-22.679,1.347-22.679s1.847-11.627,5.431-23.755c1.267,0,0.685,0,2.48,0c0.029,0,0.058,0,0.088,0
			c3.271,11.069,5.501,23.722,5.501,23.722s1.314,11.324,1.314,22.685c0,5.441-1.124,15.326-1.23,16.246
			c0.98,0.175,2.376,0.432,2.607,0.525c0.361,0.145,0.169,0.626,0.169,0.626l-0.337,7.71l-2.153,3.373l0.16,6.626l-0.346,2.194
			l-0.029,2.631c0.215,0.006,0.499,0.059,0.651,0.279c0.224,0.323-0.175,0.575,0,1.219c0.102,0.373,0.571,0.69,1.045,1.109h6.149
			c0.239,0,0.434,0.194,0.434,0.434v4.778l2.902,0.228c0,0,0.002,0,0.004,0l0.056-1.43l-0.663-0.026
			c-0.054-0.002-0.097-0.048-0.095-0.102l0.088-2.271c0.002-0.054,0.048-0.097,0.102-0.095l0.349,0.014
			c-0.06-0.002-0.107-0.053-0.105-0.113l0.017-0.446c0.002-0.06,0.053-0.107,0.113-0.105l0.314,0.012l0.201-5.156
			c0.012-0.319,0.037-0.909,0.516-0.995c0-0.006-0.003-0.011-0.003-0.018l0.171-4.388c0.003-0.085,0.073-0.151,0.157-0.151
			c0.002,0,0.004,0,0.006,0c0.087,0.003,0.154,0.076,0.151,0.163l-0.171,4.388c0,0.005-0.003,0.009-0.003,0.014
			c0.471,0.099,0.455,0.567,0.436,1.036l-0.09,2.31l7.165,0.279l0.09-2.31c0.015,0.001,0.028,0.001,0.04,0.002
			c-0.012,0-0.019-0.001-0.04-0.002c0.012-0.319,0.037-0.91,0.516-0.995c0-0.006-0.003-0.011-0.003-0.018l0.171-4.388
			c0.003-0.085,0.073-0.151,0.157-0.151c0.002,0,0.004,0,0.006,0c0.087,0.003,0.154,0.076,0.151,0.163l-0.171,4.388
			c0,0.005-0.003,0.009-0.003,0.013c0.471,0.099,0.454,0.567,0.436,1.036l-0.201,5.156l0.314,0.012
			c0.06,0.002,0.107,0.053,0.105,0.113l-0.017,0.446c-0.002,0.06-0.053,0.107-0.113,0.105l0.482,0.019
			c0.054,0.002,0.097,0.048,0.095,0.102l-0.088,2.271c-0.002,0.054-0.048,0.097-0.102,0.095l-0.796-0.031l-0.139,3.573l2.137,0.083
			l0.14-3.584l-0.663-0.026c-0.054-0.002-0.097-0.048-0.095-0.102l0.088-2.271c0.002-0.054,0.048-0.097,0.102-0.095l0.349,0.014
			c-0.06-0.002-0.107-0.053-0.105-0.113l0.017-0.446c0.002-0.06,0.053-0.107,0.113-0.105l0.314,0.012l0.201-5.156
			c0.012-0.319,0.037-0.91,0.516-0.995c0-0.006-0.003-0.011-0.003-0.018l0.171-4.388c0.003-0.085,0.073-0.151,0.157-0.151
			c0.002,0,0.004,0,0.006,0c0.087,0.003,0.154,0.076,0.151,0.163l-0.171,4.388c0,0.005-0.003,0.009-0.003,0.013
			c0.471,0.1,0.454,0.567,0.436,1.036l-0.09,2.312l7.165,0.279l0.09-2.312c0.012-0.319,0.037-0.91,0.516-0.995
			c0-0.006-0.003-0.011-0.003-0.018l0.171-4.388c0.003-0.085,0.073-0.151,0.157-0.151c0.002,0,0.004,0,0.006,0
			c0.087,0.003,0.154,0.076,0.151,0.163l-0.171,4.388c0,0.005-0.003,0.009-0.003,0.014c0.471,0.099,0.455,0.567,0.436,1.036
			l-0.201,5.156l0.314,0.012c0.06,0.002,0.107,0.053,0.105,0.113l-0.017,0.446c-0.002,0.06-0.053,0.107-0.113,0.105l0.482,0.019
			C110.908,96.484,110.951,96.53,110.948,96.584z M54.354,103.682c0,0-0.252-0.004-0.442-0.004c-0.062,0-0.106-0.096-0.135-0.245
			h-0.753c-0.021,0.227-0.038,0.394-0.038,0.394l-0.882-0.001l0.03,0.859l2.22-0.228V103.682z M54.911,100.191l-2.824,0.216
			c0,0-0.041,0.01-0.1,0.015l0.022,0.639h0.978c0,0,0.021,0.133,0.045,0.322h0.779c0.045-0.409,0.102-0.651,0.194-0.709
			c0.14-0.089,0.907,0,0.907,0V100.191z M63.105,106.999l-0.002-3.956v0H62.21v0.639c0,0,0.535-0.122,0.535,0.972
			c0,1.119-0.535,1.036-0.535,1.036v1.309H63.105z M63.275,101.252H62.21v0.898h0.962v0l0.102-0.696L63.275,101.252z M63.281,99.399
			c-0.12,0.017-0.583,0.073-1.07,0.015v1.012h1.067L63.281,99.399z M63.293,95.004c-0.029,0.075-0.063,0.152-0.109,0.236
			c-0.106,0.196-0.545,0.483-0.974,0.857v1.259l1.076,0.018L63.293,95.004z M78.192,103.011h-0.9l0.037,3.956h0.863v-1.311
			c-0.154-0.013-0.543-0.134-0.543-1.034c0-0.88,0.389-0.974,0.543-0.978V103.011z M78.192,101.22h-1.078l-0.013,0.378l0.121,0.521
			h0.97V101.22z M78.192,99.33h-1.066l-0.012,1.063h1.078V99.33z M78.192,94.534c-0.431-0.377-0.874-0.666-0.981-0.863
			c-0.008-0.016-0.015-0.03-0.022-0.045l-0.038,3.455c0.069-0.007,0.204-0.013,0.469-0.013c0.178,0,0.379-0.028,0.573-0.082V94.534z
			 M88.163,105.504l-1.615-0.099v1.049h1.578L88.163,105.504z M88.224,103.946l-0.558,0.001c0,0-0.024-0.245-0.052-0.547h-0.876
			c-0.029,0.168-0.074,0.277-0.141,0.277c-0.075,0,0.077,0.001-0.05,0.001v0.003v0.859l1.649,0.107L88.224,103.946z M88.362,100.386
			c-0.034-0.005-0.055-0.01-0.055-0.01l-2.817-0.216v0.522c0,0,0.875-0.096,1.015-0.008c0.089,0.057,0.146,0.287,0.19,0.677h0.946
			c0.015-0.104,0.025-0.17,0.025-0.17h0.666L88.362,100.386z"/>
	</g>
	<path display="inline" d="M83.087,34.108c21.246,5.676,36.943,25.082,36.943,48.093c0,7.56-1.702,14.728-4.73,21.151l0.606,7.262
		c5.143-8.246,8.124-17.98,8.124-28.414c0-25.415-17.635-46.697-41.332-52.316C82.802,30.907,82.941,32.351,83.087,34.108z"/>
	<path display="inline" d="M104.631,118.149c-8.944,8.558-21.054,13.832-34.381,13.832c-13.328,0-25.439-5.275-34.383-13.834
		c0,0-5.422,0.174-5.462,0.173c9.839,10.848,24.046,17.661,39.845,17.661c15.807,0,30.019-6.82,39.859-17.677
		C109.921,118.323,104.631,118.149,104.631,118.149z"/>
	<path display="inline" d="M25.027,102.97c-2.917-6.326-4.557-13.357-4.557-20.768c0-23.032,15.726-42.454,37.003-48.11
		c0.156-1.783,0.307-3.214,0.423-4.227c-23.744,5.584-41.426,26.889-41.426,52.337c0,10.393,2.956,20.091,8.061,28.317
		L25.027,102.97z"/>
</g>
<g id="Layer_2">
	<g>
		<path d="M100.78,99.949L100.78,99.949c-0.029-0.001-0.056-0.002-0.077-0.003C100.72,99.947,100.74,99.948,100.78,99.949z
			 M116.354,107.259l-0.1,2.572c-0.002,0.061-0.055,0.11-0.116,0.107l-0.902-0.035l-0.45,12.059l0.882,0.034
			c0.061,0.002,0.11,0.055,0.107,0.116l-0.1,2.572c-0.002,0.061-0.055,0.11-0.116,0.107l-0.366-0.014l-0.437,0.892l-11.505-0.448
			l-0.317-0.922c-0.061-0.002-0.11-0.055-0.107-0.116l0.1-2.572c0.002-0.061,0.055-0.11,0.116-0.107l0.766,0.03l0.121-3.511
			l-2.421-0.094l-0.137,3.523l0.902,0.035c0.061,0.002,0.11,0.055,0.107,0.116l-0.1,2.572c-0.002,0.061-0.055,0.11-0.116,0.107
			l-0.366-0.014l-0.437,0.892l-11.505-0.448l-0.317-0.922c-0.061-0.002-0.11-0.055-0.107-0.116l0.1-2.572
			c0.002-0.061,0.055-0.11,0.116-0.107l0.751,0.029l0.057-1.47h-1.745v16.547h-0.535v0.612h-2.223h-0.356H83.09v-0.612h-0.344
			l-1.201-10.402l-0.712-0.7v-0.92h-1.096c-0.271,0-0.491-0.22-0.491-0.491v-1.894h-0.942l0.04,3.029h-2.359l0.01-0.643h-0.741v1.25
			c0,0.113-0.092,0.205-0.205,0.205h-0.42c-0.113,0-0.205-0.092-0.205-0.205v-1.25h-0.956v1.25c0,0.113-0.092,0.205-0.205,0.205
			h-0.42c-0.113,0-0.205-0.092-0.205-0.205v-1.25h-1.065v1.25c0,0.113-0.092,0.205-0.205,0.205h-0.42
			c-0.113,0-0.205-0.092-0.205-0.205v-1.25h-1.065v1.25c0,0.113-0.092,0.205-0.205,0.205h-0.42c-0.113,0-0.205-0.092-0.205-0.205
			v-1.25h-0.992v1.25c0,0.113-0.092,0.205-0.205,0.205h-0.42c-0.113,0-0.205-0.092-0.205-0.205v-1.25h-0.919v1.25
			c0,0.113-0.092,0.205-0.205,0.205h-0.42c-0.113,0-0.205-0.092-0.205-0.205v-1.25h-0.774v0.643h-2.34l-0.002-2.992h-1.015v1.858
			c0,0.271-0.22,0.491-0.491,0.491h-0.529v0.92l-0.712,0.7l-1.201,10.402h-0.344v0.612h-2.508h-0.357h-2.223v-0.612h-0.536v-16.511
			h-2.406l-0.038-1.115h2.444v-1.321l-2.419,0.245c0,0-0.024,0.006-0.062,0.012l0.127,3.675l0.902-0.031
			c0.061-0.002,0.113,0.046,0.116,0.108l0.089,2.573c0.002,0.061-0.046,0.113-0.108,0.116l-0.366,0.013l-0.37,0.922l-11.507,0.398
			l-0.384-0.896c-0.061,0.002-0.113-0.046-0.115-0.108l-0.089-2.573c-0.002-0.061,0.046-0.113,0.108-0.115l0.751-0.026l-0.126-3.648
			l-2.403,0.083l0.019,0.548l-0.017,0.03l0.107,3.083l0.902-0.031c0.061-0.002,0.113,0.046,0.116,0.108l0.089,2.573
			c0.002,0.061-0.046,0.113-0.108,0.115l-0.366,0.013l-0.37,0.922l-11.507,0.398l-0.384-0.896c-0.061,0.002-0.113-0.046-0.116-0.108
			l-0.089-2.573c-0.002-0.061,0.046-0.113,0.108-0.115l0.733-0.025l-0.4-12.061l-0.751,0.026c-0.061,0.002-0.113-0.046-0.115-0.108
			l-0.089-2.573c-0.002-0.061,0.046-0.113,0.108-0.116l0.395-0.014c-0.068,0.002-0.126-0.051-0.128-0.119l-0.017-0.505
			c-0.002-0.068,0.051-0.126,0.119-0.128l0.356-0.012l-0.202-5.842c-0.013-0.361-0.034-1.031,0.5-1.167
			c-0.001-0.007-0.004-0.013-0.005-0.02L25.1,94.334c-0.003-0.098,0.073-0.181,0.172-0.184c0.002,0,0.004,0,0.006,0
			c0.096,0,0.175,0.076,0.178,0.172l0.172,4.972c0,0.005-0.002,0.01-0.003,0.016c0.54,0.073,0.561,0.603,0.579,1.134l0.091,2.618
			l8.118-0.281l-0.091-2.618c-0.013-0.361-0.034-1.031,0.5-1.167c-0.001-0.007-0.005-0.013-0.005-0.02l-0.172-4.972
			c-0.003-0.098,0.073-0.181,0.172-0.184c0.002,0,0.004,0,0.006,0c0.096,0,0.175,0.076,0.178,0.172l0.172,4.972
			c0,0.005-0.002,0.01-0.003,0.015c0.54,0.073,0.561,0.603,0.579,1.134l0.202,5.842l0.356-0.012
			c0.068-0.002,0.126,0.051,0.128,0.119l0.017,0.505c0.002,0.068-0.051,0.126-0.119,0.128l0.546-0.019
			c0.061-0.002,0.113,0.046,0.115,0.108l0.089,2.573c0.002,0.061-0.046,0.113-0.108,0.116l-0.902,0.031l0.093,2.693l0.018-0.001
			l0.042,1.218l2.403-0.083l-0.136-3.924l-0.751,0.026c-0.061,0.002-0.113-0.046-0.116-0.108l-0.089-2.573
			c-0.002-0.061,0.046-0.113,0.108-0.115l0.395-0.014c-0.068,0.002-0.126-0.051-0.128-0.119l-0.017-0.505
			c-0.002-0.068,0.051-0.126,0.119-0.128l0.356-0.012l-0.202-5.842c-0.013-0.361-0.034-1.031,0.5-1.167
			c-0.001-0.007-0.004-0.013-0.005-0.02l-0.172-4.972c-0.003-0.098,0.073-0.181,0.172-0.184c0.002,0,0.004,0,0.006,0
			c0.096,0,0.175,0.076,0.178,0.172l0.172,4.972c0,0.005-0.002,0.01-0.003,0.016c0.54,0.073,0.561,0.603,0.579,1.134
			c-0.083,0.003-0.042,0.006,0,0.009v-0.009l0,0.009c0.042,0.003,0.083,0.006,0,0.009l0.09,2.603l8.118-0.281l-0.091-2.62
			c-0.012-0.361-0.034-1.031,0.5-1.167c-0.001-0.007-0.004-0.013-0.005-0.02l-0.172-4.972c-0.004-0.098,0.073-0.181,0.172-0.184
			c0.002,0,0.004,0,0.006,0c0.096,0,0.175,0.076,0.178,0.172l0.172,4.972c0,0.005-0.002,0.01-0.003,0.016
			c0.54,0.073,0.561,0.603,0.579,1.134l0.202,5.842l0.356-0.012c0.068-0.002,0.126,0.051,0.128,0.119l0.017,0.505
			c0.002,0.068-0.051,0.126-0.119,0.128l0.546-0.019c0.061-0.002,0.113,0.046,0.115,0.108l0.089,2.573
			c0.002,0.061-0.046,0.113-0.108,0.115l-0.902,0.031l0.055,1.598c0.032-0.002,0.052-0.002,0.052-0.002l3.296-0.259v-5.448
			c0-0.271,0.22-0.491,0.491-0.491h7.286c0.271,0,0.491,0.22,0.491,0.491v0.57c0.179-0.178,0.313-0.353,0.364-0.54
			c0.199-0.73-0.254-1.015,0-1.381c0.207-0.298,0.624-0.327,0.868-0.315l0.013-4.759l-0.47-2.485l0.199-7.506l-2.419-3.821
			l-0.382-8.734c0,0-0.218-0.546,0.191-0.71c0.284-0.114,1.968-0.378,2.976-0.529l0.002-0.07c0,0-1.343-12.476-1.343-18.368
			c0-14.652,1.526-25.691,1.526-25.691S64.76,17.407,68.82,3.667c1.436,0,0.776,0,2.81,0c0.033,0,0.065,0,0.1,0
			c3.706,12.539,6.231,26.873,6.231,26.873s1.489,12.828,1.489,25.699c0,6.163-1.274,17.362-1.394,18.404
			c1.11,0.198,2.691,0.49,2.953,0.594c0.409,0.164,0.191,0.71,0.191,0.71l-0.382,8.734l-2.439,3.821l0.181,7.506l-0.392,2.485
			l-0.033,2.98c0.243,0.006,0.565,0.067,0.738,0.316c0.254,0.366-0.199,0.651,0,1.381c0.115,0.422,0.647,0.781,1.184,1.256h6.965
			c0.271,0,0.491,0.22,0.491,0.491v5.412l3.287,0.258c0,0,0.003,0,0.005,0l0.063-1.62l-0.751-0.029
			c-0.061-0.002-0.11-0.055-0.107-0.116l0.1-2.572c0.002-0.061,0.055-0.11,0.116-0.107l0.395,0.015
			c-0.068-0.003-0.122-0.06-0.119-0.128l0.02-0.505c0.003-0.068,0.06-0.122,0.129-0.119l0.356,0.014l0.227-5.841
			c0.014-0.361,0.042-1.03,0.585-1.127c-0.001-0.007-0.004-0.013-0.003-0.02l0.194-4.971c0.004-0.096,0.083-0.171,0.178-0.171
			c0.002,0,0.005,0,0.007,0c0.098,0.004,0.175,0.087,0.171,0.185l-0.194,4.971c0,0.005-0.003,0.01-0.004,0.015
			c0.534,0.113,0.515,0.642,0.494,1.174l-0.102,2.617l8.117,0.316l0.102-2.617c0.017,0.001,0.032,0.001,0.046,0.002
			c-0.013,0-0.022-0.001-0.046-0.002c0.014-0.361,0.042-1.03,0.585-1.127c-0.001-0.007-0.004-0.013-0.003-0.02l0.194-4.971
			c0.004-0.096,0.083-0.171,0.178-0.171c0.002,0,0.005,0,0.007,0c0.098,0.004,0.175,0.087,0.171,0.185l-0.194,4.971
			c0,0.005-0.003,0.01-0.004,0.015c0.534,0.113,0.515,0.642,0.494,1.174l-0.227,5.841l0.356,0.014
			c0.068,0.003,0.122,0.06,0.119,0.128l-0.02,0.505c-0.003,0.068-0.06,0.122-0.129,0.119l0.546,0.021
			c0.061,0.002,0.11,0.055,0.107,0.116l-0.1,2.572c-0.002,0.061-0.055,0.11-0.116,0.107l-0.902-0.035l-0.158,4.047l2.421,0.094
			l0.158-4.06l-0.751-0.029c-0.061-0.002-0.11-0.055-0.107-0.116l0.1-2.572c0.002-0.061,0.055-0.11,0.116-0.107l0.395,0.015
			c-0.068-0.003-0.122-0.06-0.119-0.129l0.02-0.505c0.003-0.068,0.06-0.122,0.129-0.119l0.356,0.014l0.227-5.841
			c0.014-0.361,0.042-1.03,0.585-1.127c-0.001-0.007-0.004-0.013-0.003-0.02l0.193-4.971c0.004-0.096,0.083-0.171,0.178-0.171
			c0.002,0,0.005,0,0.007,0c0.098,0.004,0.175,0.087,0.171,0.185l-0.193,4.971c0,0.005-0.003,0.01-0.004,0.015
			c0.533,0.113,0.515,0.642,0.494,1.174l-0.102,2.619l8.117,0.316l0.102-2.619c0.014-0.361,0.042-1.03,0.585-1.127
			c-0.001-0.007-0.004-0.013-0.003-0.02l0.194-4.971c0.004-0.096,0.083-0.171,0.178-0.171c0.002,0,0.005,0,0.007,0
			c0.098,0.004,0.175,0.087,0.171,0.185l-0.194,4.971c0,0.005-0.003,0.01-0.004,0.015c0.534,0.113,0.515,0.642,0.494,1.174
			l-0.227,5.841l0.356,0.014c0.068,0.003,0.122,0.06,0.119,0.128l-0.02,0.505c-0.003,0.068-0.06,0.122-0.128,0.119l0.546,0.021
			C116.309,107.145,116.357,107.197,116.354,107.259z M52.243,115.299c0,0-0.285-0.005-0.501-0.005c-0.071,0-0.12-0.108-0.153-0.278
			h-0.853c-0.024,0.257-0.043,0.447-0.043,0.447l-0.999-0.001l0.034,0.973l2.515-0.259V115.299z M52.874,111.345l-3.2,0.245
			c0,0-0.046,0.012-0.114,0.017l0.025,0.724h1.107c0,0,0.024,0.151,0.052,0.365h0.883c0.051-0.463,0.115-0.737,0.219-0.803
			c0.158-0.1,1.027,0,1.027,0V111.345z M62.156,119.057l-0.003-4.482v0h-1.011v0.724c0,0,0.606-0.139,0.606,1.101
			c0,1.268-0.606,1.173-0.606,1.173v1.483H62.156z M62.349,112.547h-1.207v1.018h1.09v0l0.116-0.789L62.349,112.547z
			 M62.355,110.447c-0.136,0.019-0.66,0.083-1.212,0.017v1.146h1.209L62.355,110.447z M62.368,105.469
			c-0.033,0.084-0.071,0.172-0.123,0.268c-0.12,0.222-0.618,0.547-1.103,0.97v1.427l1.219,0.02L62.368,105.469z M79.246,114.539
			h-1.019l0.042,4.482h0.977v-1.485c-0.175-0.015-0.615-0.152-0.615-1.171c0-0.997,0.44-1.104,0.615-1.108V114.539z M79.246,112.511
			h-1.221l-0.015,0.428l0.137,0.59h1.099V112.511z M79.246,110.369h-1.208l-0.013,1.204h1.221V110.369z M79.246,104.937
			c-0.488-0.427-0.99-0.754-1.112-0.978c-0.01-0.018-0.016-0.034-0.025-0.051l-0.043,3.914c0.078-0.008,0.232-0.015,0.531-0.015
			c0.202,0,0.429-0.031,0.649-0.093V104.937z M90.543,117.364l-1.83-0.112v1.189h1.788L90.543,117.364z M90.611,115.599
			l-0.632,0.001c0,0-0.028-0.278-0.058-0.619h-0.992c-0.033,0.19-0.084,0.314-0.159,0.314c-0.085,0,0.088,0.001-0.057,0.002v0.003
			v0.973l1.868,0.122L90.611,115.599z M90.768,111.565c-0.038-0.005-0.063-0.012-0.063-0.012l-3.191-0.244v0.592
			c0,0,0.991-0.109,1.149-0.009c0.101,0.064,0.165,0.325,0.215,0.767h1.071c0.016-0.117,0.028-0.192,0.028-0.192h0.754
			L90.768,111.565z"/>
	</g>
	<path d="M84.238,21.316c24.531,6.229,42.679,28.454,42.679,54.922c0,7.157-1.34,13.997-3.761,20.301l-0.191,18.915
		c8.171-10.955,13.015-24.53,13.015-39.217c0-32.214-23.302-59.071-53.931-64.648C82.913,15.152,83.652,18.507,84.238,21.316z"/>
	<path d="M17.232,96.253c-2.351-6.225-3.648-12.967-3.648-20.015c0-26.49,18.179-48.729,42.74-54.937
		c0.563-2.771,1.285-6.097,2.166-9.718C27.842,17.146,4.521,44.011,4.521,76.239c0,14.567,4.771,28.037,12.822,38.945L17.232,96.253
		z"/>
</g>
</svg>
